<svg width="20" height="18" viewBox="0 0 20 18" fill="none" xmlns="http://www.w3.org/2000/svg">
<path fill-rule="evenodd" clip-rule="evenodd" d="M6 0.481002C4.93913 0.481002 3.92172 0.928754 3.17157 1.72576C2.42143 2.52276 2 3.60373 2 4.73087C2 5.858 2.42143 6.93897 3.17157 7.73598C3.92172 8.53298 4.93913 8.98073 6 8.98073C7.06087 8.98073 8.07828 8.53298 8.82843 7.73598C9.57857 6.93897 10 5.858 10 4.73087C10 3.60373 9.57857 2.52276 8.82843 1.72576C8.07828 0.928754 7.06087 0.481002 6 0.481002ZM4 10.0432C2.93913 10.0432 1.92172 10.491 1.17157 11.288C0.421427 12.085 0 13.1659 0 14.2931V15.3555C0 15.9191 0.210714 16.4596 0.585786 16.8581C0.960859 17.2566 1.46957 17.4805 2 17.4805H10C10.5304 17.4805 11.0391 17.2566 11.4142 16.8581C11.7893 16.4596 12 15.9191 12 15.3555V14.2931C12 13.1659 11.5786 12.085 10.8284 11.288C10.0783 10.491 9.06087 10.0432 8 10.0432H4ZM11.25 7.81733C11.728 6.90361 12 5.85177 12 4.73087C12.0002 3.65081 11.7421 2.58839 11.25 1.64334C11.8178 1.07251 12.5306 0.690958 13.3003 0.545843C14.07 0.400729 14.8628 0.498412 15.5808 0.826819C16.2988 1.15523 16.9106 1.69996 17.3403 2.39371C17.7701 3.08745 17.9992 3.89979 17.9992 4.73034C17.9992 5.56088 17.7701 6.37322 17.3403 7.06697C16.9106 7.76071 16.2988 8.30545 15.5808 8.63386C14.8628 8.96226 14.07 9.05995 13.3003 8.91483C12.5306 8.76972 11.8178 8.38817 11.25 7.81733ZM13.466 17.4805C13.806 16.8557 14.001 16.1301 14.001 15.3555V14.2931C14.0028 12.7246 13.4586 11.2109 12.473 10.0432H16C17.0609 10.0432 18.0783 10.491 18.8284 11.288C19.5786 12.085 20 13.1659 20 14.2931V15.3555C20 15.9191 19.7893 16.4596 19.4142 16.8581C19.0391 17.2566 18.5304 17.4805 18 17.4805H13.466Z" fill="#79D893"/>
</svg>
