<svg width="20" height="16" viewBox="0 0 20 16" fill="none" xmlns="http://www.w3.org/2000/svg">
<path d="M19.8045 3.90739L17.1379 1.18027C17.0128 1.05234 16.8431 0.980469 16.6662 0.980469C16.4893 0.980469 16.3197 1.05234 16.1946 1.18027C16.0695 1.3082 15.9992 1.48171 15.9992 1.66263C15.9992 1.84355 16.0695 2.01706 16.1946 2.14499L17.7237 3.70797H16.6662C12.5555 3.70797 11.5789 6.10444 10.7181 8.21796C9.93645 10.1363 9.30814 11.6771 6.59488 11.8689C6.42462 11.0423 5.9603 10.3097 5.29194 9.81331C4.62358 9.31689 3.79879 9.09196 2.97749 9.18212C2.15618 9.27228 1.39686 9.67111 0.846744 10.3013C0.296628 10.9315 -0.00509739 11.7481 6.51694e-05 12.5929C0.00522772 13.4376 0.31691 14.2503 0.874686 14.8734C1.43246 15.4965 2.19659 15.8856 3.01894 15.9653C3.84128 16.0449 4.66326 15.8095 5.3255 15.3045C5.98774 14.7996 6.44307 14.0612 6.60322 13.2325C10.2081 13.0066 11.1314 10.7482 11.9481 8.74208C12.7839 6.69077 13.4438 5.07154 16.6662 5.07154H17.7237L16.1946 6.63452C16.0695 6.76245 15.9992 6.93596 15.9992 7.11688C15.9992 7.2978 16.0695 7.47131 16.1946 7.59924C16.3197 7.72717 16.4893 7.79904 16.6662 7.79904C16.8431 7.79904 17.0128 7.72717 17.1379 7.59924L19.8045 4.87212C19.8665 4.8088 19.9156 4.7336 19.9492 4.65084C19.9827 4.56807 20 4.47935 20 4.38976C20 4.30016 19.9827 4.21144 19.9492 4.12867C19.9156 4.04591 19.8665 3.97071 19.8045 3.90739ZM3.33332 14.6165C2.93777 14.6165 2.5511 14.4965 2.22221 14.2718C1.89332 14.047 1.63699 13.7276 1.48562 13.3539C1.33424 12.9801 1.29464 12.5689 1.37181 12.1721C1.44898 11.7753 1.63945 11.4109 1.91915 11.1249C2.19884 10.8388 2.5552 10.644 2.94315 10.5651C3.3311 10.4862 3.73322 10.5267 4.09866 10.6815C4.4641 10.8363 4.77645 11.0984 4.99621 11.4348C5.21596 11.7712 5.33326 12.1666 5.33326 12.5711C5.33326 13.1136 5.12255 13.6338 4.74749 14.0174C4.37243 14.401 3.86373 14.6165 3.33332 14.6165Z" fill="#79D893"/>
</svg>
