<svg width="14" height="20" viewBox="0 0 14 20" fill="none" xmlns="http://www.w3.org/2000/svg">
<path d="M5.56452 11.6885C5.57311 11.618 5.56672 11.5465 5.54578 11.4787C5.52484 11.4109 5.48981 11.3483 5.44298 11.2949C5.39616 11.2416 5.33859 11.1988 5.27406 11.1692C5.20953 11.1397 5.13949 11.1241 5.06851 11.1235H2.00052C1.91755 11.1226 1.83608 11.1013 1.76328 11.0615C1.69048 11.0217 1.62859 10.9646 1.58305 10.8953C1.5375 10.8259 1.50971 10.7464 1.50212 10.6638C1.49453 10.5812 1.50737 10.498 1.53952 10.4215L5.44652 1.29347C5.48356 1.2016 5.54706 1.1228 5.62896 1.06708C5.71085 1.01135 5.80746 0.981206 5.90652 0.980469H10.4245C10.7775 0.980469 11.0185 1.34047 10.8895 1.67447L8.66451 7.38647C8.63396 7.46279 8.62247 7.54541 8.63103 7.62718C8.63959 7.70895 8.66794 7.7874 8.71364 7.85574C8.75933 7.92408 8.82099 7.98026 8.89328 8.01942C8.96557 8.05858 9.04631 8.07953 9.12852 8.08047H12.0005C12.4125 8.08047 12.6475 8.55947 12.3985 8.89347L4.92852 18.9395C4.86652 19.0225 4.73752 18.9695 4.74852 18.8675L5.56452 11.6885Z" stroke="#79D893" stroke-width="1.5" stroke-linecap="round" stroke-linejoin="round"/>
</svg>
