<svg width="16" height="16" viewBox="0 0 16 16" fill="none" xmlns="http://www.w3.org/2000/svg">
<path fill="#999999" d="M5 2C5 1.46957 5.21071 0.960859 5.58579 0.585786C5.96086 0.210714 6.46957 0 7 0L9 0C9.53043 0 10.0391 0.210714 10.4142 0.585786C10.7893 0.960859 11 1.46957 11 2H14.5C14.8978 2 15.2794 2.15804 15.5607 2.43934C15.842 2.72064 16 3.10218 16 3.5V12.5C16 12.8978 15.842 13.2794 15.5607 13.5607C15.2794 13.842 14.8978 14 14.5 14H14C14 14.1326 13.9473 14.2598 13.8536 14.3536C13.7598 14.4473 13.6326 14.5 13.5 14.5C13.3674 14.5 13.2402 14.4473 13.1464 14.3536C13.0527 14.2598 13 14.1326 13 14H3C3 14.1326 2.94732 14.2598 2.85355 14.3536C2.75979 14.4473 2.63261 14.5 2.5 14.5C2.36739 14.5 2.24021 14.4473 2.14645 14.3536C2.05268 14.2598 2 14.1326 2 14H1.5C1.10218 14 0.720644 13.842 0.43934 13.5607C0.158035 13.2794 0 12.8978 0 12.5L0 3.5C0 3.10218 0.158035 2.72064 0.43934 2.43934C0.720644 2.15804 1.10218 2 1.5 2H5ZM6 2H10C10 1.73478 9.89464 1.48043 9.70711 1.29289C9.51957 1.10536 9.26522 1 9 1H7C6.73478 1 6.48043 1.10536 6.29289 1.29289C6.10536 1.48043 6 1.73478 6 2ZM1.5 3C1.36739 3 1.24021 3.05268 1.14645 3.14645C1.05268 3.24021 1 3.36739 1 3.5V12.5C1 12.6326 1.05268 12.7598 1.14645 12.8536C1.24021 12.9473 1.36739 13 1.5 13H3V3H1.5ZM15 12.5V3.5C15 3.36739 14.9473 3.24021 14.8536 3.14645C14.7598 3.05268 14.6326 3 14.5 3H13V13H14.5C14.6326 13 14.7598 12.9473 14.8536 12.8536C14.9473 12.7598 15 12.6326 15 12.5ZM12 13V3H4V13H12Z" />
</svg>
