<svg width="20" height="20" viewBox="0 0 20 20" fill="none" xmlns="http://www.w3.org/2000/svg">
<path d="M6.25 7.08332V6.66666C6.25 6.27999 6.25 6.08582 6.26667 5.92332C6.34217 5.15589 6.68143 4.43837 7.22663 3.89302C7.77183 3.34767 8.48925 3.00821 9.25667 2.93249C9.41917 2.91666 9.61333 2.91666 10 2.91666C10.3867 2.91666 10.5808 2.91666 10.7433 2.93332C11.5108 3.00883 12.2283 3.34809 12.7736 3.89329C13.319 4.43849 13.6584 5.15591 13.7342 5.92332C13.75 6.08582 13.75 6.27999 13.75 6.66666V7.08332M12.9167 11.25V9.58332M7.08333 11.25V9.58332" stroke="#999999" stroke-linecap="round"/>
<path d="M4.58337 10.0833C4.58337 8.66915 4.58337 7.96165 5.02254 7.52248C5.46171 7.08331 6.16921 7.08331 7.58337 7.08331H12.4167C13.8309 7.08331 14.5384 7.08331 14.9775 7.52248C15.4167 7.96165 15.4167 8.66915 15.4167 10.0833V12.0833C15.4167 14.44 15.4167 15.6191 14.6842 16.3508C13.9525 17.0833 12.7734 17.0833 10.4167 17.0833H9.58337C7.22671 17.0833 6.04754 17.0833 5.31587 16.3508C4.58337 15.6191 4.58337 14.44 4.58337 12.0833V10.0833Z" stroke="#999999"/>
</svg>
