<svg width="1280" height="635" viewBox="0 0 1280 635" fill="none" xmlns="http://www.w3.org/2000/svg">
<mask id="mask0_228_845" style="mask-type:alpha" maskUnits="userSpaceOnUse" x="0" y="0" width="1280" height="635">
<rect width="1280" height="635" fill="white"/>
</mask>
<g mask="url(#mask0_228_845)">
<path d="M1335 563.664H-15.7893V-166H1335V563.664Z" fill="#5CBCE4"/>
<path d="M-18.9699 143.239L39.045 138.302V134.599H69.9026L71.1372 121.021L111.871 119.787V116.083L161.245 113.616V91.3967H178.526L183.464 93.8658L188.401 64.241H200.745V45.7256L216.791 66.71L242.713 64.241L241.479 32.1483H271.104V85.2253H279.743V101.272L359.975 100.037L357.508 19.8044L401.944 18.571L416.756 48.1946L487.114 45.7256L488.348 37.0852L563.644 34.6173L595.737 53.1327L653.752 51.8982L663.626 45.7256L701.89 65.4754L703.124 55.6006L727.812 58.0696L730.281 71.6468L775.952 72.8814L784.593 82.7563L815.451 81.5218L812.983 70.4123L843.841 72.8814L858.654 70.4123V61.7731H878.403L880.872 74.1159L904.324 71.6468V60.5386L954.933 59.3041L961.104 76.5849L988.26 75.3504L989.495 61.7731H993.198L995.666 76.5849L1038.87 74.1159L1037.63 42.0233H1063.55L1079.6 35.8519V44.4911H1124.04L1126.51 80.2873L1135.15 79.0539L1132.68 113.616L1138.85 112.381V104.975H1147.49L1148.72 119.787L1215.38 118.552L1220.32 109.912H1249.95L1256.11 128.427L1335 124.725V502.435L-56 296.299L-18.9699 143.239Z" fill="#4E8CAA"/>
<path d="M-10.6041 217.361L40.2915 212.626L48.5768 271.807H56.8621L53.3113 246.951L80.5351 242.217L92.3713 212.626L88.8204 204.341L113.676 201.974L114.86 205.525L121.962 207.892L123.145 263.522L125.513 287.194L143.267 290.745L151.552 254.053H155.103L156.287 241.033L198.897 238.666L190.612 109.652L195.346 107.284V94.2646L263.996 96.6319L267.547 121.488H274.648L281.75 264.706L338.564 252.869L337.38 135.691L345.666 133.324L346.849 128.59L381.174 127.406L378.807 108.468L391.827 101.366L393.01 85.9793L421.417 83.6121L422.601 68.225H443.906L446.273 80.0612H486.516L490.067 64.6742H503.087L509.005 72.9595L531.494 69.4086L530.31 52.838H546.881L548.064 69.4086L594.225 67.0414L596.593 82.4284L610.796 85.9793L633.285 95.4482L639.203 93.081L638.019 84.7957L671.16 83.6121L677.079 98.9991L693.649 97.8155L692.466 84.7957L750.463 83.6121L746.912 166.465L784.788 168.833V160.547L801.358 158.18L804.909 166.465L813.195 155.813L839.234 152.262L842.785 135.691L851.07 138.058L849.887 127.406H861.723V114.386H904.333L948.127 119.121L949.311 161.731L956.412 177.118H967.065L989.554 129.773H1001.39L1015.59 168.833L1023.88 183.036V200.79L1040.45 207.892L1047.55 51.6544L1096.08 55.2052V162.914L1109.1 164.098L1158.81 167.649L1154.07 224.463L1165.91 229.197L1168.28 219.728H1176.56V229.197L1182.48 230.381L1197.87 228.013V212.626L1206.15 204.341L1208.52 170.016L1233.37 167.649L1255.86 174.751L1287.82 168.833L1335 175.934V531.02L-7.05324 539.305L-10.6041 217.361Z" fill="#386883"/>
<path d="M-7.05324 416.813L27.188 413.934L30.0689 405.292L50.2344 403.37L48.3138 395.688L62.7181 389.928L59.8369 355.358L121.293 343.835L131.857 355.358L132.817 364L142.419 361.12L155.863 372.643L163.545 443.703L167.385 441.782L173.149 448.503L226.923 446.583L215.399 291.02L334.471 275.656L372.882 298.703L375.763 305.424L385.365 301.584L425.697 321.749V339.033H434.339V97.0472L582.22 87.4445L607.186 95.1273V194.994L623.511 209.397L621.59 291.02L630.232 289.1L629.272 282.378L655.2 280.457L658.079 290.06L667.682 287.179V279.497L709.935 271.814L737.781 281.418L753.145 275.656L765.629 280.457L767.55 289.1H772.352L774.272 293.901H777.154L776.193 297.743V321.749L794.437 320.788V256.451L806.92 251.649V243.967L845.331 240.127L849.172 242.046V235.325L933.674 221.881L981.688 236.286L973.045 394.728L984.57 392.809L982.649 386.087L1003.77 379.364L1013.38 231.484L1106.52 220.921L1131.49 232.445L1132.45 267.015L1140.13 265.094V257.412L1170.86 251.65L1232.32 267.015L1233.28 278.537L1252.48 281.418V294.862L1271.69 291.982L1276.49 256.452L1335 242.048V609.827L113.61 689.53L-11.2236 677.046L-7.05324 416.813Z" fill="#234456"/>
<path d="M-7.05324 510.053L57.8779 499.161L78.2992 526.391L90.5532 665.256L105.528 663.894L95.9979 546.812L101.444 545.449V540.005L131.395 534.558L150.455 542.727L147.733 488.27L169.515 480.102L173.598 465.125L185.851 463.765L203.55 485.547L207.634 484.186L217.165 496.438V503.245L234.862 496.438L243.032 505.968H283.874L282.512 417.478L341.053 407.947L330.163 402.501V369.827L338.331 360.297V341.236L366.92 312.647L377.811 319.455L402.317 348.044H411.846V379.357H417.293V432.453L428.184 441.981V492.354L460.859 489.631L485.363 501.885L507.147 510.053V448.79H520.761V440.621L561.604 435.175L586.108 448.79L607.891 454.235V356.212L644.65 349.405L674.601 364.38V462.403L696.384 458.318V345.321L701.831 343.96V327.622L739.95 318.093L775.346 331.707V356.212H783.516L787.6 337.153L850.224 328.984L904.68 348.044L895.152 556.341L912.85 574.039V525.029L919.657 527.751V510.053L933.272 505.968V492.354L941.44 485.547V474.656L957.776 467.849L959.137 450.15L970.03 447.428L968.668 437.897L1005.43 428.367L1044.91 447.428L1043.55 461.042L1051.71 462.403V484.186L1058.52 489.631V527.751L1062.61 535.92V501.885L1091.2 493.717L1114.34 510.053V552.257L1193.3 531.836L1211 540.005L1235.51 526.391L1303.57 554.98L1299.49 537.281L1335 523.667V666.616H-12.9158L-7.05324 510.053Z" fill="#100F0D"/>
</g>
</svg>
