<svg width="20" height="20" viewBox="0 0 20 20" fill="none" xmlns="http://www.w3.org/2000/svg">
<path d="M6.25 7.08366V6.66699C6.25 6.28033 6.25 6.08616 6.26667 5.92366C6.34217 5.15622 6.68143 4.43871 7.22663 3.89336C7.77183 3.348 8.48925 3.00855 9.25667 2.93283C9.41917 2.91699 9.61333 2.91699 10 2.91699C10.3867 2.91699 10.5808 2.91699 10.7433 2.93366C11.5108 3.00917 12.2283 3.34842 12.7736 3.89362C13.319 4.43883 13.6584 5.15625 13.7342 5.92366C13.75 6.08616 13.75 6.28033 13.75 6.66699V7.08366M12.9167 11.2503V9.58366M7.08333 11.2503V9.58366" stroke="#79D893" stroke-linecap="round"/>
<path d="M4.5835 10.084C4.5835 8.66982 4.5835 7.96232 5.02266 7.52315C5.46183 7.08398 6.16933 7.08398 7.5835 7.08398H12.4168C13.831 7.08398 14.5385 7.08398 14.9777 7.52315C15.4168 7.96232 15.4168 8.66982 15.4168 10.084V12.084C15.4168 14.4407 15.4168 15.6198 14.6843 16.3515C13.9527 17.084 12.7735 17.084 10.4168 17.084H9.5835C7.22683 17.084 6.04766 17.084 5.316 16.3515C4.5835 15.6198 4.5835 14.4407 4.5835 12.084V10.084Z" stroke="#79D893"/>
</svg>
