<svg width="16" height="26" viewBox="0 0 16 26" fill="none" xmlns="http://www.w3.org/2000/svg">
<path d="M3.22726 22.3138V23.6471C3.22726 24.0007 3.37093 24.3399 3.62666 24.5899C3.88239 24.84 4.22924 24.9804 4.5909 24.9804C4.95255 24.9804 5.2994 24.84 5.55513 24.5899C5.81086 24.3399 5.95453 24.0007 5.95453 23.6471V22.3138M10.0454 22.3138V23.6471C10.0454 24.0007 10.1891 24.3399 10.4448 24.5899C10.7006 24.84 11.0474 24.9804 11.4091 24.9804C11.7707 24.9804 12.1176 24.84 12.3733 24.5899C12.629 24.3399 12.7727 24.0007 12.7727 23.6471V22.3138M4.5909 6.31378V2.31378C4.5909 1.96016 4.73456 1.62102 4.9903 1.37097C5.24603 1.12093 5.59287 0.98045 5.95453 0.98045H10.0454C10.4071 0.98045 10.7539 1.12093 11.0097 1.37097C11.2654 1.62102 11.4091 1.96016 11.4091 2.31378V6.31378M0.499986 7.64712C0.499986 7.29349 0.643655 6.95436 0.899386 6.70431C1.15512 6.45426 1.50196 6.31378 1.86362 6.31378H14.1363C14.498 6.31378 14.8449 6.45426 15.1006 6.70431C15.3563 6.95436 15.5 7.29349 15.5 7.64712V20.9804C15.5 21.3341 15.3563 21.6732 15.1006 21.9233C14.8449 22.1733 14.498 22.3138 14.1363 22.3138H1.86362C1.50196 22.3138 1.15512 22.1733 0.899386 21.9233C0.643655 21.6732 0.499986 21.3341 0.499986 20.9804V7.64712Z" stroke="#79D893" stroke-linecap="round" stroke-linejoin="round"/>
</svg>
