<svg width="1282" height="143" viewBox="0 0 1282 143" fill="none" xmlns="http://www.w3.org/2000/svg">
<g clip-path="url(#clip0_1_2)">
<mask id="mask0_1_2" style="mask-type:luminance" maskUnits="userSpaceOnUse" x="0" y="0" width="1283" height="144">
<path d="M1282.01 0H0V143.4H1282.01V0Z" fill="white"/>
</mask>
<g mask="url(#mask0_1_2)">
<path d="M0 143.4H1282C1281.96 107.55 1282.04 88.3399 1282 52.4899C1233.62 64.9199 1171.39 79.9399 1136.9 82.8999C979.73 96.4199 978.85 61.0699 821.88 64.3899C759.48 65.7099 685.22 82.2999 618.41 88.4299C479.97 101.12 417.49 72.7399 267.04 43.2599C215.74 33.2099 100.78 26.4799 0 36.0599V143.4Z" fill="#00A6DB"/>
<path d="M989.02 46.6997H956.52V93.8197H989.02V46.6997Z" fill="#3576A7"/>
<path d="M984.56 41.5898H960.98V68.5798H984.56V41.5898Z" fill="#3576A7"/>
<path d="M981.25 36.21H964.28V63.2H981.25V36.21Z" fill="#3576A7"/>
<path d="M974.35 22.3799H971.54V36.2099H974.35V22.3799Z" fill="#3576A7"/>
<path d="M967.79 56.25H956.52V58.54H967.79V56.25Z" fill="#09366D"/>
<path d="M989.02 56.25H977.75V58.54H989.02V56.25Z" fill="#09366D"/>
<path d="M989.02 65.8799H977.75V68.1699H989.02V65.8799Z" fill="#09366D"/>
<path d="M989.02 75.5098H977.75V77.7998H989.02V75.5098Z" fill="#09366D"/>
<path d="M967.79 65.8799H956.52V68.1699H967.79V65.8799Z" fill="#09366D"/>
<path d="M967.79 75.5098H956.52V77.7998H967.79V75.5098Z" fill="#09366D"/>
<path d="M714.96 103.33H680.74V40.9399H707.91L714.96 103.33Z" fill="#3576A7"/>
<path d="M714.96 103.33H689.27V47.48H708.79L709.73 56.04L709.89 57.43L710.81 65.77L710.96 67.16L711.85 75.16L712 76.56L712.88 84.56L713.04 85.96L713.96 94.29L714.11 95.69L714.96 103.33Z" fill="#09366D"/>
<path d="M709.89 57.43H688.35V56.04H709.73L709.89 57.43Z" fill="#3576A7"/>
<path d="M710.96 67.16H688.35V65.77H710.81L710.96 67.16Z" fill="#3576A7"/>
<path d="M712 76.5602H688.35V75.1602H711.85L712 76.5602Z" fill="#3576A7"/>
<path d="M713.04 85.9601H688.35V84.5601H712.88L713.04 85.9601Z" fill="#3576A7"/>
<path d="M714.11 95.69H688.35V94.29H713.96L714.11 95.69Z" fill="#3576A7"/>
<path d="M704.91 33.71V37.94H683.73V33.71H704.91ZM707.91 30.71H680.73V40.94H707.91V30.71Z" fill="#3576A7"/>
<path d="M917.48 32.6899H883.92V85.6799H917.48V32.6899Z" fill="#3576A7"/>
<path d="M899.8 38.46H888.81V43.11H899.8V38.46Z" fill="#09366D"/>
<path d="M912.59 38.46H901.6V43.11H912.59V38.46Z" fill="#09366D"/>
<path d="M899.8 46.7603H888.81V51.4103H899.8V46.7603Z" fill="#09366D"/>
<path d="M912.59 46.7603H901.6V51.4103H912.59V46.7603Z" fill="#09366D"/>
<path d="M899.8 55.0601H888.81V59.7101H899.8V55.0601Z" fill="#09366D"/>
<path d="M912.59 55.0601H901.6V59.7101H912.59V55.0601Z" fill="#09366D"/>
<path d="M899.8 63.3599H888.81V68.0099H899.8V63.3599Z" fill="#09366D"/>
<path d="M912.59 63.3599H901.6V68.0099H912.59V63.3599Z" fill="#09366D"/>
<path d="M899.8 71.6602H888.81V76.3102H899.8V71.6602Z" fill="#09366D"/>
<path d="M912.59 71.6602H901.6V76.3102H912.59V71.6602Z" fill="#09366D"/>
<path d="M912.59 27.5801H888.81V32.6801H912.59V27.5801Z" fill="#3576A7"/>
<path d="M666.39 105.86V40.6699H640.19C640.19 40.6699 628.13 63.3199 631.94 105.86H666.4H666.39Z" fill="#3576A7"/>
<path d="M661.38 105.86V48.1797H643.7C643.7 48.1797 635.57 68.2197 638.13 105.86H661.37H661.38Z" fill="#09366D"/>
<path d="M638.88 60.2201H654.02V58.8301H638.99L638.88 60.2201Z" fill="#3576A7"/>
<path d="M638.12 69.9501H654.02V68.5601H638.23L638.12 69.9501Z" fill="#3576A7"/>
<path d="M637.39 79.3497H654.02V77.9497H637.5L637.39 79.3497Z" fill="#3576A7"/>
<path d="M636.66 88.7501H654.02V87.3501H636.77L636.66 88.7501Z" fill="#3576A7"/>
<path d="M635.91 98.4801H654.02V97.0801H636.01L635.91 98.4801Z" fill="#3576A7"/>
<path d="M589.06 67.3101H538.53V110.23H589.06V67.3101Z" fill="#3576A7"/>
<path d="M550.01 72.02H543.57V83.51H550.01V72.02Z" fill="#09366D"/>
<path d="M561.35 72.02H554.91V83.51H561.35V72.02Z" fill="#09366D"/>
<path d="M572.69 72.02H566.25V83.51H572.69V72.02Z" fill="#09366D"/>
<path d="M584.03 72.02H577.59V83.51H584.03V72.02Z" fill="#09366D"/>
<path d="M550.01 86.8101H543.57V98.3001H550.01V86.8101Z" fill="#09366D"/>
<path d="M561.35 86.8101H554.91V98.3001H561.35V86.8101Z" fill="#09366D"/>
<path d="M572.69 86.8101H566.25V98.3001H572.69V86.8101Z" fill="#09366D"/>
<path d="M584.03 86.8101H577.59V98.3001H584.03V86.8101Z" fill="#09366D"/>
<path d="M75.1602 0H53.1602V52H75.1602V0Z" fill="#3576A7"/>
<path d="M86.1602 10H75.1602V52H86.1602V10Z" fill="#3576A7"/>
<path d="M97.1602 20H86.1602V52H97.1602V20Z" fill="#3576A7"/>
<path d="M93.65 25H89.25V52H93.65V25Z" fill="#09366D"/>
<path d="M85.4801 25H81.0801V52H85.4801V25Z" fill="#09366D"/>
<path d="M77.3199 16H72.9199V52H77.3199V16Z" fill="#09366D"/>
<path d="M69.15 7H64.75V52H69.15V7Z" fill="#09366D"/>
<path d="M60.9903 7H56.5903V52H60.9903V7Z" fill="#09366D"/>
<path d="M0 143.4H1282C1281.96 107.55 1282.04 111.09 1282 75.2402C1230.79 87.6702 1185.85 93.7102 1149.35 96.6802C982.98 110.2 998.48 79.8902 832.32 83.2102C766.27 84.5302 687.66 101.12 616.94 107.25C470.4 119.94 399.01 77.8102 245.71 58.3702C190.88 51.4102 106.67 44.9702 0 54.5502V143.41V143.4Z" fill="#09366D"/>
<path d="M772.278 67.4353L766.285 67.7075L767.71 99.0852L773.703 98.813L772.278 67.4353Z" fill="#09366D"/>
<path d="M758.66 68.5646C763.267 68.3554 766.806 63.8832 766.565 58.5757C766.324 53.2682 762.394 49.1352 757.787 49.3444C753.18 49.5536 749.641 54.0257 749.882 59.3332C750.123 64.6407 754.053 68.7738 758.66 68.5646Z" fill="#09366D"/>
<path d="M775.798 67.3501C781.182 67.1056 785.33 62.1084 785.061 56.1884C784.792 50.2685 780.209 45.6677 774.824 45.9122C769.439 46.1568 765.292 51.154 765.561 57.0739C765.83 62.9938 770.413 67.5947 775.798 67.3501Z" fill="#09366D"/>
<path d="M777.792 76.5473C782.769 76.3213 786.615 71.9921 786.382 66.8777C786.15 61.7632 781.928 57.8004 776.951 58.0264C771.975 58.2524 768.129 62.5816 768.361 67.696C768.593 72.8104 772.816 76.7733 777.792 76.5473Z" fill="#09366D"/>
<path d="M761.575 78.2122C766.491 77.9889 770.279 73.4696 770.036 68.118C769.793 62.7663 765.611 58.6089 760.695 58.8321C755.779 59.0554 751.991 63.5747 752.234 68.9263C752.477 74.278 756.659 78.4354 761.575 78.2122Z" fill="#09366D"/>
<path d="M769.029 79.8004C773.945 79.5771 777.752 75.4738 777.532 70.6352C777.312 65.7967 773.149 62.0552 768.233 62.2784C763.318 62.5017 759.511 66.605 759.73 71.4436C759.95 76.2821 764.113 80.0236 769.029 79.8004Z" fill="#09366D"/>
<path d="M768.126 59.8737C773.456 59.6317 777.583 55.1821 777.345 49.9353C777.106 44.6885 772.593 40.6313 767.263 40.8733C761.934 41.1153 757.806 45.5649 758.045 50.8117C758.283 56.0586 762.797 60.1158 768.126 59.8737Z" fill="#09366D"/>
<path d="M821.77 54.23H815.77V85.64H821.77V54.23Z" fill="#09366D"/>
<path d="M808.11 54.74C812.721 54.74 816.46 50.433 816.46 45.12C816.46 39.807 812.721 35.5 808.11 35.5C803.498 35.5 799.76 39.807 799.76 45.12C799.76 50.433 803.498 54.74 808.11 54.74Z" fill="#09366D"/>
<path d="M825.29 54.3101C830.68 54.3101 835.05 49.5061 835.05 43.5801C835.05 37.6541 830.68 32.8501 825.29 32.8501C819.899 32.8501 815.53 37.6541 815.53 43.5801C815.53 49.5061 819.899 54.3101 825.29 54.3101Z" fill="#09366D"/>
<path d="M826.86 63.5703C831.841 63.5703 835.88 59.42 835.88 54.3003C835.88 49.1806 831.841 45.0303 826.86 45.0303C821.878 45.0303 817.84 49.1806 817.84 54.3003C817.84 59.42 821.878 63.5703 826.86 63.5703Z" fill="#09366D"/>
<path d="M810.59 64.5104C815.511 64.5104 819.5 60.1675 819.5 54.8104C819.5 49.4532 815.511 45.1104 810.59 45.1104C805.669 45.1104 801.68 49.4532 801.68 54.8104C801.68 60.1675 805.669 64.5104 810.59 64.5104Z" fill="#09366D"/>
<path d="M817.96 66.4404C822.881 66.4404 826.87 62.5139 826.87 57.6704C826.87 52.8268 822.881 48.9004 817.96 48.9004C813.039 48.9004 809.05 52.8268 809.05 57.6704C809.05 62.5139 813.039 66.4404 817.96 66.4404Z" fill="#09366D"/>
<path d="M817.96 46.4902C823.295 46.4902 827.62 42.2324 827.62 36.9802C827.62 31.728 823.295 27.4702 817.96 27.4702C812.625 27.4702 808.3 31.728 808.3 36.9802C808.3 42.2324 812.625 46.4902 817.96 46.4902Z" fill="#09366D"/>
<path d="M1095.73 68.7197H1089.73V100.13H1095.73V68.7197Z" fill="#09366D"/>
<path d="M1082.07 69.2297C1086.68 69.2297 1090.42 64.9227 1090.42 59.6097C1090.42 54.2968 1086.68 49.9897 1082.07 49.9897C1077.46 49.9897 1073.72 54.2968 1073.72 59.6097C1073.72 64.9227 1077.46 69.2297 1082.07 69.2297Z" fill="#09366D"/>
<path d="M1099.25 68.7998C1104.64 68.7998 1109.01 63.9959 1109.01 58.0698C1109.01 52.1438 1104.64 47.3398 1099.25 47.3398C1093.86 47.3398 1089.49 52.1438 1089.49 58.0698C1089.49 63.9959 1093.86 68.7998 1099.25 68.7998Z" fill="#09366D"/>
<path d="M1100.82 78.06C1105.8 78.06 1109.84 73.9097 1109.84 68.79C1109.84 63.6703 1105.8 59.52 1100.82 59.52C1095.84 59.52 1091.8 63.6703 1091.8 68.79C1091.8 73.9097 1095.84 78.06 1100.82 78.06Z" fill="#09366D"/>
<path d="M1084.55 79.0001C1089.47 79.0001 1093.46 74.6573 1093.46 69.3001C1093.46 63.9429 1089.47 59.6001 1084.55 59.6001C1079.63 59.6001 1075.64 63.9429 1075.64 69.3001C1075.64 74.6573 1079.63 79.0001 1084.55 79.0001Z" fill="#09366D"/>
<path d="M1091.92 80.9301C1096.84 80.9301 1100.83 77.0037 1100.83 72.1601C1100.83 67.3166 1096.84 63.3901 1091.92 63.3901C1087 63.3901 1083.01 67.3166 1083.01 72.1601C1083.01 77.0037 1087 80.9301 1091.92 80.9301Z" fill="#09366D"/>
<path d="M1091.92 60.98C1097.25 60.98 1101.58 56.7222 1101.58 51.47C1101.58 46.2177 1097.25 41.96 1091.92 41.96C1086.58 41.96 1082.26 46.2177 1082.26 51.47C1082.26 56.7222 1086.58 60.98 1091.92 60.98Z" fill="#09366D"/>
<path d="M499.676 76.4473L493.687 76.0894L491.813 107.443L497.802 107.801L499.676 76.4473Z" fill="#09366D"/>
<path d="M494.964 67.0125C495.281 61.709 491.806 57.1866 487.203 56.9115C482.599 56.6364 478.611 60.7128 478.294 66.0163C477.977 71.3198 481.451 75.8422 486.055 76.1173C490.658 76.3924 494.647 72.316 494.964 67.0125Z" fill="#09366D"/>
<path d="M513.611 66.5761C513.964 60.6607 509.889 55.6046 504.508 55.283C499.127 54.9615 494.479 59.4962 494.125 65.4117C493.772 71.3271 497.847 76.3832 503.228 76.7048C508.609 77.0263 513.257 72.4916 513.611 66.5761Z" fill="#09366D"/>
<path d="M513.798 77.3378C514.104 72.2272 510.32 67.8434 505.347 67.5462C500.375 67.249 496.096 71.1511 495.79 76.2616C495.485 81.3722 499.269 85.756 504.241 86.0532C509.214 86.3504 513.493 82.4484 513.798 77.3378Z" fill="#09366D"/>
<path d="M497.408 76.8642C497.728 71.5166 494.005 66.9435 489.092 66.65C484.18 66.3564 479.939 70.4535 479.62 75.8011C479.3 81.1488 483.023 85.7219 487.935 86.0154C492.847 86.309 497.088 82.2118 497.408 76.8642Z" fill="#09366D"/>
<path d="M504.601 80.1641C504.89 75.3292 501.142 71.1718 496.23 70.8782C491.318 70.5847 487.102 74.2662 486.813 79.1011C486.524 83.936 490.272 88.0934 495.184 88.387C500.096 88.6805 504.312 84.999 504.601 80.1641Z" fill="#09366D"/>
<path d="M506.59 59.5594C506.904 54.3165 502.84 49.8083 497.515 49.4901C492.189 49.1718 487.618 53.164 487.305 58.4069C486.991 63.6497 491.055 68.1579 496.38 68.4762C501.706 68.7944 506.277 64.8023 506.59 59.5594Z" fill="#09366D"/>
<path d="M271.15 37.9809L265.177 37.4131L262.204 68.6821L268.178 69.2499L271.15 37.9809Z" fill="#09366D"/>
<path d="M266.733 28.4136C267.235 23.1245 263.921 18.483 259.33 18.0466C254.74 17.6103 250.61 21.5442 250.108 26.8333C249.605 32.1225 252.919 36.7639 257.51 37.2003C262.101 37.6367 266.23 33.7028 266.733 28.4136Z" fill="#09366D"/>
<path d="M285.387 28.6428C285.948 22.7434 282.053 17.5475 276.686 17.0374C271.32 16.5273 266.516 20.8963 265.955 26.7957C265.394 32.6951 269.29 37.891 274.656 38.4011C280.022 38.9112 284.826 34.5423 285.387 28.6428Z" fill="#09366D"/>
<path d="M285.204 39.4001C285.688 34.3034 282.061 29.7895 277.102 29.3181C272.142 28.8467 267.729 32.5963 267.245 37.693C266.76 42.7897 270.388 47.3035 275.347 47.7749C280.306 48.2464 284.719 44.4968 285.204 39.4001Z" fill="#09366D"/>
<path d="M268.842 38.3482C269.348 33.0151 265.788 28.3142 260.889 27.8486C255.991 27.3829 251.608 31.3288 251.102 36.6619C250.595 41.995 254.155 46.6959 259.054 47.1615C263.952 47.6272 268.335 43.6813 268.842 38.3482Z" fill="#09366D"/>
<path d="M275.904 41.8961C276.363 37.0743 272.763 32.788 267.864 32.3223C262.966 31.8567 258.623 35.388 258.164 40.2098C257.706 45.0316 261.306 49.3179 266.204 49.7836C271.103 50.2492 275.446 46.7179 275.904 41.8961Z" fill="#09366D"/>
<path d="M278.609 21.3663C279.106 16.1377 275.204 11.4897 269.893 10.9849C264.581 10.48 259.873 14.3094 259.376 19.5381C258.879 24.7667 262.782 29.4146 268.093 29.9195C273.404 30.4243 278.112 26.595 278.609 21.3663Z" fill="#09366D"/>
<path d="M421.055 86.768L402.132 83.0579L346.543 70.6462L334.337 65.9857C333.865 63.5022 334.528 60.447 335.316 57.9728C335.419 57.6535 335.531 57.3343 335.633 57.0351C336.348 55.0703 336.985 54.115 336.985 54.115C337.675 54.0501 338.816 53.9585 339.786 53.9357C339.866 53.9363 339.956 53.937 340.036 53.9276C341.777 53.8804 343.826 53.9156 345.826 53.9704C350.875 54.1378 355.715 52.8636 360.711 52.0405C389.777 47.2855 400.909 65.9484 400.909 65.9484C413.83 69.8541 420.85 72.6961 420.85 72.6961C422.203 73.5362 422.884 74.8212 423.153 76.2733C423.192 76.4536 423.221 76.6238 423.239 76.7939C423.391 77.9151 423.312 79.1145 423.113 80.2931C422.558 83.6891 421.055 86.768 421.055 86.768Z" fill="#3576A7"/>
<path d="M353.524 77.2881C357.18 77.3152 360.166 74.3733 360.193 70.7173C360.22 67.0613 357.278 64.0756 353.622 64.0485C349.966 64.0214 346.98 66.9633 346.953 70.6193C346.926 74.2754 349.868 77.2611 353.524 77.2881Z" fill="#09366D"/>
<path d="M405.349 88.8619C409.005 88.8889 411.991 85.9471 412.018 82.291C412.045 78.635 409.103 75.6493 405.447 75.6222C401.791 75.5952 398.806 78.537 398.779 82.1931C398.752 85.8491 401.693 88.8348 405.349 88.8619Z" fill="#09366D"/>
<path d="M399.06 68.5646L354.832 58.687C354.832 58.687 380.962 42.56 399.06 68.5646Z" fill="#09366D"/>
<path d="M380.119 53.5335L378.372 53.1436L375.531 65.8703L377.278 66.2603L380.119 53.5335Z" fill="#3576A7"/>
<path d="M423.113 80.2831C418.767 79.7909 417.031 77.858 417.031 77.858L416.882 73.7168L423.153 76.2633C423.192 76.4436 423.221 76.6138 423.239 76.7839C423.391 77.9051 423.312 79.1045 423.113 80.2831Z" fill="#09366D"/>
<path d="M339.24 57.4516C338.911 58.6592 337.013 58.4351 335.306 57.9625C335.409 57.6432 335.521 57.324 335.623 57.0248C336.338 55.06 336.975 54.1047 336.975 54.1047C337.665 54.0398 338.806 53.9483 339.776 53.9254C339.626 55.3644 339.436 56.693 339.24 57.4416V57.4516Z" fill="#09366D"/>
<path d="M353.549 73.9282C355.349 73.9415 356.819 72.4928 356.833 70.6924C356.846 68.892 355.397 67.4217 353.597 67.4084C351.796 67.3951 350.326 68.8438 350.313 70.6442C350.299 72.4446 351.748 73.9149 353.549 73.9282Z" fill="#3576A7"/>
<path d="M405.374 85.502C407.175 85.5153 408.645 84.0666 408.658 82.2662C408.672 80.4658 407.223 78.9955 405.423 78.9821C403.622 78.9688 402.152 80.4175 402.138 82.2179C402.125 84.0183 403.574 85.4886 405.374 85.502Z" fill="#3576A7"/>
<path d="M159.448 26.685C159.607 23.7014 157.152 21.1446 153.965 20.9742C150.777 20.8038 148.064 23.0843 147.904 26.0679C147.745 29.0515 150.199 31.6084 153.387 31.7788C156.575 31.9492 159.288 29.6686 159.448 26.685Z" fill="#09366D"/>
<path d="M168.337 22.8465C168.523 19.3831 165.516 16.4067 161.623 16.1986C157.729 15.9904 154.423 18.6293 154.238 22.0927C154.052 25.5561 157.059 28.5325 160.952 28.7406C164.846 28.9488 168.152 26.3099 168.337 22.8465Z" fill="#09366D"/>
<path d="M192.075 27.7471C192.24 24.6698 189.53 22.0231 186.022 21.8356C182.515 21.6481 179.538 23.9907 179.374 27.0681C179.209 30.1454 181.919 32.7921 185.427 32.9796C188.934 33.1671 191.911 30.8245 192.075 27.7471Z" fill="#09366D"/>
<path d="M186.703 23.1081C186.909 19.2476 183.723 15.9388 179.587 15.7177C175.451 15.4966 171.931 18.4469 171.724 22.3073C171.518 26.1678 174.704 29.4766 178.84 29.6977C182.976 29.9188 186.496 26.9686 186.703 23.1081Z" fill="#09366D"/>
<path d="M179.761 19.6233C179.965 15.8069 176.308 12.5088 171.593 12.2568C166.877 12.0047 162.889 14.8941 162.685 18.7105C162.481 22.5268 166.138 25.8249 170.854 26.077C175.569 26.3291 179.557 23.4397 179.761 19.6233Z" fill="#09366D"/>
<path d="M176.85 29.69C177.026 26.3976 174.406 23.5808 170.998 23.3986C167.589 23.2164 164.684 25.7378 164.508 29.0302C164.332 32.3226 166.952 35.1394 170.36 35.3216C173.768 35.5038 176.674 32.9824 176.85 29.69Z" fill="#09366D"/>
<path d="M166.309 30.1002C166.456 27.3482 164.152 24.9877 161.163 24.8279C158.174 24.6681 155.631 26.7695 155.484 29.5215C155.337 32.2735 157.641 34.6339 160.63 34.7937C163.619 34.9535 166.162 32.8521 166.309 30.1002Z" fill="#09366D"/>
<path d="M184.931 31.0997C185.078 28.3477 182.774 25.9873 179.785 25.8275C176.796 25.6677 174.254 27.7691 174.107 30.521C173.96 33.273 176.263 35.6334 179.253 35.7932C182.242 35.953 184.784 33.8517 184.931 31.0997Z" fill="#09366D"/>
<path d="M170.46 33.4199L169.18 57.3299" stroke="#09366D" stroke-width="3" stroke-miterlimit="10"/>
<path d="M179.7 35.1799C179.36 41.5199 160.74 40.5299 161.08 34.1899" stroke="#09366D" stroke-width="3" stroke-miterlimit="10"/>
<path d="M1175.42 72.0549C1178.6 71.8423 1181.02 69.2531 1180.82 66.2719C1180.62 63.2907 1177.88 61.0463 1174.7 61.259C1171.51 61.4716 1169.09 64.0608 1169.29 67.042C1169.49 70.0232 1172.23 72.2676 1175.42 72.0549Z" fill="#09366D"/>
<path d="M1182.56 68.1516C1186.45 67.8918 1189.42 64.8758 1189.19 61.4152C1188.96 57.9545 1185.61 55.3597 1181.72 55.6195C1177.83 55.8793 1174.87 58.8953 1175.1 62.3559C1175.33 65.8165 1178.67 68.4114 1182.56 68.1516Z" fill="#09366D"/>
<path d="M1207.36 69.4131C1210.86 69.1791 1213.54 66.4967 1213.33 63.4218C1213.13 60.3469 1210.12 58.0439 1206.62 58.2779C1203.11 58.512 1200.44 61.1944 1200.64 64.2693C1200.85 67.3442 1203.86 69.6472 1207.36 69.4131Z" fill="#09366D"/>
<path d="M1200.42 66.957C1204.55 66.6811 1207.7 63.3303 1207.44 59.4729C1207.18 55.6155 1203.62 52.7122 1199.49 52.9881C1195.36 53.2641 1192.21 56.6148 1192.47 60.4722C1192.73 64.3296 1196.29 67.233 1200.42 66.957Z" fill="#09366D"/>
<path d="M1192.07 64.3192C1196.79 64.0046 1200.4 60.6583 1200.14 56.845C1199.89 53.0317 1195.86 50.1954 1191.15 50.51C1186.44 50.8246 1182.83 54.1709 1183.08 57.9842C1183.34 61.7975 1187.36 64.6338 1192.07 64.3192Z" fill="#09366D"/>
<path d="M1192.69 73.5335C1196.09 73.3061 1198.68 70.4548 1198.46 67.165C1198.24 63.8752 1195.3 61.3926 1191.89 61.62C1188.49 61.8474 1185.9 64.6987 1186.12 67.9885C1186.34 71.2783 1189.28 73.7609 1192.69 73.5335Z" fill="#09366D"/>
<path d="M1182.96 74.1959C1185.95 73.9964 1188.22 71.6056 1188.04 68.8558C1187.85 66.1061 1185.28 64.0386 1182.3 64.238C1179.31 64.4375 1177.04 66.8283 1177.22 69.578C1177.41 72.3278 1179.98 74.3953 1182.96 74.1959Z" fill="#09366D"/>
<path d="M1201.57 72.9488C1204.55 72.7494 1206.83 70.3585 1206.64 67.6088C1206.46 64.859 1203.89 62.7915 1200.9 62.991C1197.92 63.1904 1195.64 65.5812 1195.83 68.331C1196.01 71.0807 1198.58 73.1482 1201.57 72.9488Z" fill="#09366D"/>
<path d="M1192.56 71.7402L1194.16 95.6302" stroke="#09366D" stroke-width="3" stroke-miterlimit="10"/>
<path d="M1201.95 72.3799C1202.37 78.7199 1183.76 79.9599 1183.34 73.6199" stroke="#09366D" stroke-width="3" stroke-miterlimit="10"/>
</g>
</g>
<defs>
<clipPath id="clip0_1_2">
<rect width="1282" height="143" fill="white"/>
</clipPath>
</defs>
</svg>
