<svg width="16" height="16" viewBox="0 0 16 16" fill="none" xmlns="http://www.w3.org/2000/svg">
<path d="M2.64616 5.35414C2.59967 5.30771 2.56279 5.25256 2.53763 5.19186C2.51246 5.13117 2.49951 5.0661 2.49951 5.00039C2.49951 4.93469 2.51246 4.86962 2.53763 4.80892C2.56279 4.74822 2.59967 4.69308 2.64616 4.64664L4.64615 2.64664C4.71608 2.57664 4.80521 2.52895 4.90225 2.50963C4.99929 2.4903 5.09989 2.50021 5.1913 2.53808C5.28271 2.57596 5.36083 2.64011 5.41577 2.7224C5.4707 2.8047 5.49998 2.90145 5.49991 3.00039V4.50039H12.9999C13.1325 4.50039 13.2597 4.55307 13.3535 4.64684C13.4472 4.74061 13.4999 4.86779 13.4999 5.00039C13.4999 5.133 13.4472 5.26018 13.3535 5.35395C13.2597 5.44772 13.1325 5.50039 12.9999 5.50039H5.49991V7.00039C5.49998 7.09934 5.4707 7.19609 5.41577 7.27838C5.36083 7.36068 5.28271 7.42483 5.1913 7.46271C5.09989 7.50058 4.99929 7.51048 4.90225 7.49116C4.80521 7.47183 4.71608 7.42415 4.64615 7.35414L2.64616 5.35414ZM13.3537 10.6466L11.3537 8.64664C11.2837 8.57664 11.1946 8.52895 11.0976 8.50963C11.0005 8.4903 10.8999 8.50021 10.8085 8.53808C10.7171 8.57596 10.639 8.64011 10.584 8.7224C10.5291 8.8047 10.4998 8.90145 10.4999 9.00039V10.5004H2.99991C2.8673 10.5004 2.74012 10.5531 2.64635 10.6468C2.55258 10.7406 2.49991 10.8678 2.49991 11.0004C2.49991 11.133 2.55258 11.2602 2.64635 11.3539C2.74012 11.4477 2.8673 11.5004 2.99991 11.5004H10.4999V13.0004C10.4998 13.0993 10.5291 13.1961 10.584 13.2784C10.639 13.3607 10.7171 13.4248 10.8085 13.4627C10.8999 13.5006 11.0005 13.5105 11.0976 13.4912C11.1946 13.4718 11.2837 13.4241 11.3537 13.3541L13.3537 11.3541C13.4001 11.3077 13.437 11.2526 13.4622 11.1919C13.4873 11.1312 13.5003 11.0661 13.5003 11.0004C13.5003 10.9347 13.4873 10.8696 13.4622 10.8089C13.437 10.7482 13.4001 10.6931 13.3537 10.6466Z" fill="#00A6DB"/>
</svg>
