<svg width="39" height="22" viewBox="0 0 39 22" fill="none" xmlns="http://www.w3.org/2000/svg">
<path d="M37.9732 13.972L30.041 14.1331L6.60496 14.0032L1.2868 13.1976C0.882497 12.2399 0.88073 10.9543 0.980184 9.89232C0.995985 9.75527 1.00697 9.61495 1.02836 9.48522C1.14684 8.63328 1.31879 8.19424 1.31879 8.19424C1.59078 8.10476 2.03833 7.96931 2.4314 7.87773C2.46374 7.87157 2.49935 7.86061 2.53092 7.85041C3.22332 7.68091 4.05451 7.51432 4.86375 7.36447C6.90821 6.99206 8.74409 6.05198 10.68 5.28553C21.9506 0.832154 28.0613 7.36383 28.0613 7.36383C33.5991 7.80511 36.6698 8.33483 36.6698 8.33483C37.2852 8.5528 37.6739 9.01077 37.9108 9.57306C37.9401 9.6387 37.9701 9.70839 37.9912 9.77557C38.1502 10.2145 38.2223 10.7034 38.2484 11.1927C38.3208 12.6073 37.9869 13.9778 37.9869 13.9778L37.9732 13.972Z" fill="#0085FF"/>
<path d="M9.93973 16.0744C11.4177 15.793 12.3877 14.3669 12.1064 12.889C11.8251 11.411 10.3989 10.441 8.92097 10.7223C7.44304 11.0036 6.47299 12.4298 6.75432 13.9077C7.03564 15.3857 8.4618 16.3557 9.93973 16.0744Z" fill="#3576A7"/>
<path d="M31.7908 16.1958C33.2687 15.9145 34.2388 14.4883 33.9575 13.0104C33.6761 11.5325 32.25 10.5624 30.772 10.8438C29.2941 11.1251 28.3241 12.5512 28.6054 14.0292C28.8867 15.5071 30.3129 16.4772 31.7908 16.1958Z" fill="#3576A7"/>
<path d="M27.5383 8.57747L8.89106 8.47434C8.89106 8.47434 17.9872 -0.294316 27.5383 8.57747Z" fill="#3576A7"/>
<path d="M18.6076 4.19543L17.871 4.19128L17.8408 9.55706L18.5774 9.56121L18.6076 4.19543Z" fill="#0085FF"/>
<path d="M38.2348 11.1869C36.4431 11.3687 35.5781 10.7417 35.5781 10.7417L35.1585 9.0874L37.9004 9.56241C37.9297 9.62806 37.9597 9.69774 37.9809 9.76492C38.1398 10.2038 38.2119 10.6927 38.2381 11.182L38.2348 11.1869Z" fill="#3576A7"/>
<path d="M2.51228 9.33675C2.48893 9.85223 1.70299 9.92643 0.975393 9.889C0.991193 9.75195 1.00218 9.61163 1.02357 9.48189C1.14205 8.62995 1.31399 8.19091 1.31399 8.19091C1.58599 8.10144 2.03354 7.96598 2.42662 7.8744C2.48891 8.46573 2.53061 9.01491 2.51633 9.33598L2.51228 9.33675Z" fill="#3576A7"/>
<path d="M9.68125 14.7161C10.4091 14.5775 10.8867 13.8752 10.7482 13.1474C10.6097 12.4196 9.90736 11.9419 9.17956 12.0805C8.45176 12.219 7.97406 12.9213 8.1126 13.6491C8.25114 14.3769 8.95345 14.8546 9.68125 14.7161Z" fill="#0085FF"/>
<path d="M31.5323 14.8378C32.2601 14.6992 32.7378 13.9969 32.5992 13.2691C32.4607 12.5413 31.7584 12.0636 31.0306 12.2022C30.3028 12.3407 29.8251 13.043 29.9636 13.7708C30.1021 14.4986 30.8045 14.9763 31.5323 14.8378Z" fill="#0085FF"/>
</svg>
