<svg width="50" height="50" viewBox="0 0 50 50" fill="none" xmlns="http://www.w3.org/2000/svg">
<rect width="50" height="50" rx="25" fill="#00A6DB"/>
<path d="M18.9 27.7H27.7V25.5H18.9V27.7ZM18.9 24.4H32.1V22.2H18.9V24.4ZM18.9 21.1H32.1V18.9H18.9V21.1ZM14.5 36.5V16.7C14.5 16.095 14.7156 15.5773 15.1468 15.1468C15.578 14.7163 16.0957 14.5007 16.7 14.5H34.3C34.905 14.5 35.4231 14.7156 35.8543 15.1468C36.2855 15.578 36.5007 16.0957 36.5 16.7V29.9C36.5 30.505 36.2848 31.0231 35.8543 31.4543C35.4238 31.8855 34.9057 32.1007 34.3 32.1H18.9L14.5 36.5ZM17.965 29.9H34.3V16.7H16.7V31.1375L17.965 29.9Z" fill="white"/>
</svg>
