<svg width="17" height="18" viewBox="0 0 17 18" fill="none" xmlns="http://www.w3.org/2000/svg">
<path d="M11.9284 7.87469C11.9284 8.76982 11.5672 9.62829 10.9242 10.2612C10.2813 10.8942 9.40926 11.2498 8.5 11.2498C7.59074 11.2498 6.71873 10.8942 6.07578 10.2612C5.43284 9.62829 5.07164 8.76982 5.07164 7.87469C5.07164 6.97955 5.43284 6.12108 6.07578 5.48813C6.71873 4.85517 7.59074 4.49958 8.5 4.49958C9.40926 4.49958 10.2813 4.85517 10.9242 5.48813C11.5672 6.12108 11.9284 6.97955 11.9284 7.87469ZM10.7856 7.87469C10.7856 7.27793 10.5448 6.70562 10.1161 6.28365C9.68752 5.86168 9.10617 5.62462 8.5 5.62462C7.89383 5.62462 7.31248 5.86168 6.88386 6.28365C6.45523 6.70562 6.21443 7.27793 6.21443 7.87469C6.21443 8.47144 6.45523 9.04375 6.88386 9.46572C7.31248 9.88769 7.89383 10.1248 8.5 10.1248C9.10617 10.1248 9.68752 9.88769 10.1161 9.46572C10.5448 9.04375 10.7856 8.47144 10.7856 7.87469ZM14.1568 13.4492C15.6572 11.9714 16.5 9.96749 16.5 7.87806C16.5 5.78863 15.6572 3.78472 14.1568 2.30689C13.414 1.57552 12.5321 0.995362 11.5615 0.599544C10.5909 0.203726 9.55058 0 8.5 0C7.44942 0 6.40913 0.203726 5.43853 0.599544C4.46794 0.995362 3.58604 1.57552 2.84321 2.30689C1.34284 3.78472 0.5 5.78863 0.5 7.87806C0.5 9.96749 1.34284 11.9714 2.84321 13.4492L4.58139 15.1357L6.9161 17.3689L7.06809 17.5016C7.95375 18.2081 9.25081 18.1631 10.085 17.3689L12.8677 14.7025L14.1568 13.4492ZM3.64887 3.10004C4.28568 2.47243 5.04189 1.97454 5.87429 1.63484C6.70668 1.29514 7.59892 1.12029 8.5 1.12029C9.40108 1.12029 10.2933 1.29514 11.1257 1.63484C11.9581 1.97454 12.7143 2.47243 13.3511 3.10004C14.6016 4.33273 15.3206 5.99304 15.358 7.73481C15.3955 9.47657 14.7486 11.1654 13.5523 12.4491L13.3511 12.6561L11.8415 14.1231L9.29309 16.5633L9.18567 16.6533C8.98774 16.7992 8.74707 16.878 8.49981 16.8778C8.25254 16.8776 8.01202 16.7984 7.81433 16.6522L7.70805 16.5622L4.30255 13.294L3.64887 12.6561L3.44774 12.4502C2.25137 11.1665 1.60449 9.4777 1.64196 7.73593C1.67943 5.99417 2.39836 4.33273 3.64887 3.10004Z" fill="#00A6DB"/>
</svg>
