<svg width="25" height="24" viewBox="0 0 25 24" fill="none" xmlns="http://www.w3.org/2000/svg">
<path d="M11.064 13.708C11.0726 13.6375 11.0662 13.5661 11.0453 13.4983C11.0243 13.4304 10.9893 13.3678 10.9425 13.3145C10.8957 13.2611 10.8381 13.2183 10.7736 13.1887C10.709 13.1592 10.639 13.1436 10.568 13.143H7.50003C7.41706 13.1421 7.3356 13.1208 7.2628 13.081C7.19 13.0412 7.1281 12.9841 7.08256 12.9148C7.03702 12.8454 7.00923 12.7659 7.00163 12.6833C6.99404 12.6007 7.00688 12.5175 7.03903 12.441L10.946 3.313C10.9831 3.22113 11.0466 3.14233 11.1285 3.08661C11.2104 3.03088 11.307 3.00074 11.406 3H15.924C16.277 3 16.518 3.36 16.389 3.694L14.164 9.406C14.1335 9.48233 14.122 9.56495 14.1305 9.64671C14.1391 9.72848 14.1675 9.80693 14.2131 9.87527C14.2588 9.94362 14.3205 9.9998 14.3928 10.039C14.4651 10.0781 14.5458 10.0991 14.628 10.1H17.5C17.912 10.1 18.147 10.579 17.898 10.913L10.428 20.959C10.366 21.042 10.237 20.989 10.248 20.887L11.064 13.708Z" stroke="#F3CC0B" stroke-width="1.5" stroke-linecap="round" stroke-linejoin="round"/>
</svg>
