<svg width="19" height="18" viewBox="0 0 19 18" fill="none" xmlns="http://www.w3.org/2000/svg">
<path d="M9.02381 17.5238V16.6086C7.03968 16.4225 5.40159 15.6835 4.10952 14.3914C2.81682 13.0987 2.07778 11.4603 1.89238 9.47619H0.97619C0.841587 9.47619 0.728571 9.43047 0.637143 9.33904C0.545714 9.24762 0.5 9.13428 0.5 8.99904C0.5 8.86381 0.545714 8.75079 0.637143 8.66C0.728571 8.5692 0.841587 8.52381 0.97619 8.52381H1.89238C2.07778 6.53968 2.81682 4.90159 4.10952 3.60952C5.40222 2.31746 7.04031 1.57841 9.02381 1.39238V0.47619C9.02381 0.341587 9.06952 0.228571 9.16095 0.137143C9.25238 0.0457143 9.36571 0 9.50095 0C9.63619 0 9.7492 0.0457143 9.84 0.137143C9.93079 0.228571 9.97619 0.341587 9.97619 0.47619V1.39238C11.9603 1.57778 13.5984 2.31682 14.8905 3.60952C16.1825 4.90222 16.9219 6.54031 17.1086 8.52381H18.0238C18.159 8.52381 18.2721 8.56952 18.3629 8.66095C18.4536 8.75238 18.4994 8.86571 18.5 9.00095C18.5006 9.13619 18.4549 9.2492 18.3629 9.34C18.2708 9.43079 18.1578 9.47619 18.0238 9.47619H17.1086C16.9225 11.4603 16.1835 13.0984 14.8914 14.3905C13.5987 15.6832 11.9603 16.4225 9.97619 16.6086V17.5238C9.97619 17.659 9.93047 17.7721 9.83904 17.8629C9.74762 17.9536 9.63428 17.9994 9.49904 18C9.36381 18.0006 9.25079 17.9549 9.16 17.8629C9.0692 17.7708 9.02381 17.6578 9.02381 17.5238ZM9.5 15.6667C11.3413 15.6667 12.9127 15.0159 14.2143 13.7143C15.5159 12.4127 16.1667 10.8413 16.1667 9C16.1667 7.15873 15.5159 5.5873 14.2143 4.28571C12.9127 2.98413 11.3413 2.33333 9.5 2.33333C7.65873 2.33333 6.0873 2.98413 4.78571 4.28571C3.48413 5.5873 2.83333 7.15873 2.83333 9C2.83333 10.8413 3.48413 12.4127 4.78571 13.7143C6.0873 15.0159 7.65873 15.6667 9.5 15.6667ZM9.5 11.8571C8.7146 11.8571 8.0419 11.5775 7.4819 11.0181C6.9219 10.4587 6.64222 9.78603 6.64285 9C6.64349 8.21397 6.92317 7.54127 7.4819 6.9819C8.04063 6.42254 8.71333 6.14285 9.5 6.14285C10.2867 6.14285 10.9594 6.42254 11.5181 6.9819C12.0768 7.54127 12.3565 8.21397 12.3571 9C12.3578 9.78603 12.0781 10.4587 11.5181 11.0181C10.9581 11.5775 10.2854 11.8571 9.5 11.8571ZM9.5 10.9048C10.0238 10.9048 10.4724 10.7184 10.8457 10.3457C11.219 9.97301 11.4054 9.52444 11.4048 9C11.4041 8.47555 11.2178 8.0273 10.8457 7.65524C10.4736 7.28317 10.0251 7.09651 9.5 7.09524C8.97492 7.09397 8.52666 7.28063 8.15524 7.65524C7.78381 8.02984 7.59714 8.47809 7.59524 9C7.59333 9.5219 7.78 9.97047 8.15524 10.3457C8.53047 10.7209 8.97873 10.9073 9.5 10.9048Z" fill="#00A6DB"/>
</svg>
