<svg width="50" height="51" viewBox="0 0 50 51" fill="none" xmlns="http://www.w3.org/2000/svg">
<path d="M17.125 44.4632H32.875V49.6926H17.125C9.88 49.6926 4 43.8357 4 36.6191V13.0866H9.25V36.6191C9.25 40.9595 12.7675 44.4632 17.125 44.4632ZM20.8525 8.92925C22.9 6.88977 22.9 3.56909 20.8525 1.52961C18.805 -0.509869 15.4713 -0.509869 13.4237 1.52961C11.3763 3.56909 11.3763 6.88977 13.4237 8.92925C15.4713 10.9949 18.7788 10.9949 20.8525 8.92925ZM23.6875 18.3161C23.6875 15.4399 21.325 13.0866 18.4375 13.0866H17.125C14.2375 13.0866 11.875 15.4399 11.875 18.3161V34.0044C11.875 38.3448 15.3925 41.8485 19.75 41.8485H33.0588L42.2463 51L46 47.261L32.6912 34.0044H23.6875V18.3161Z" fill="#00A6DB"/>
</svg>
