<svg width="17" height="19" viewBox="0 0 17 19" fill="none" xmlns="http://www.w3.org/2000/svg">
<g clip-path="url(#clip0_1404_8355)">
<path d="M12.0952 16.3546C11.4218 16.4761 10.8122 16.826 10.3712 17.3442L10.3672 17.3489C10.1754 17.5991 9.91772 17.7921 9.62236 17.9069C9.32701 18.0217 9.00541 18.0538 8.69285 17.9997L8.70325 18.0012V17.991L8.63925 17.9925L8.57205 17.991H8.57525V18.0012C8.265 18.053 7.94635 18.02 7.65367 17.9058C7.361 17.7915 7.1054 17.6003 6.91445 17.3529L6.91125 17.3489C6.47466 16.8325 5.87036 16.4821 5.20165 16.3577L5.18325 16.3546C4.51207 16.2139 3.8121 16.3199 3.21409 16.6526C2.61608 16.9854 2.16092 17.5222 1.93365 18.1627L1.92725 18.1825L2.87285 18.4952C3.02282 18.0735 3.32474 17.7213 3.72079 17.5062C4.11683 17.291 4.57916 17.228 5.01925 17.3291L5.00725 17.3267C5.47519 17.4122 5.89575 17.6632 6.19045 18.0329L6.19365 18.0369C6.45269 18.3513 6.78217 18.6017 7.15597 18.7682C7.52978 18.9348 7.93764 19.0129 8.34725 18.9964H8.34245C8.43578 18.9958 8.53445 18.9922 8.63845 18.9853C8.74138 18.9922 8.84005 18.9958 8.93445 18.9964C9.34228 19.0127 9.74836 18.9349 10.1206 18.7692C10.4928 18.6035 10.821 18.3544 11.0792 18.0416L11.0832 18.0369C11.3755 17.6684 11.7927 17.417 12.2576 17.3291L12.2696 17.3275C12.7061 17.2294 13.1638 17.2928 13.5563 17.5057C13.9488 17.7187 14.2489 18.0664 14.4 18.4834L14.404 18.496L15.3496 18.1833C15.1245 17.535 14.6668 16.991 14.0632 16.6547C13.4596 16.3183 12.7522 16.2129 12.0752 16.3585L12.0936 16.3554L12.0952 16.3546Z" fill="#0386AF"/>
<path d="M3.0528 9.36262C2.86747 9.35934 2.69017 9.28721 2.5561 9.16054C2.42203 9.03387 2.34101 8.86195 2.32912 8.67889C2.31723 8.49584 2.37535 8.31507 2.49193 8.17246C2.60851 8.02985 2.77502 7.93585 2.9584 7.90912H2.9624V7.91387L3.4056 7.99304C3.52168 8.05559 3.61859 8.14793 3.68616 8.26035C3.75373 8.37276 3.78946 8.50111 3.7896 8.63191V8.6327C3.78939 8.8261 3.71188 9.01156 3.57399 9.14861C3.4361 9.28565 3.24903 9.36316 3.0536 9.3642L3.0528 9.36262ZM3.9576 4.45587L6.1336 3.70062H11.144L13.32 4.45587V6.26245L8.6392 5.50245L3.9584 6.26245L3.9576 4.45587ZM7.1712 0.986787H10.1072L10.5784 2.71341H6.7L7.1712 0.986787ZM13.8744 7.99066L14.3176 7.9115V7.90754C14.4959 7.92964 14.6599 8.01517 14.7792 8.14816C14.8984 8.28116 14.9647 8.45254 14.9656 8.63033C14.9656 8.82412 14.8878 9.00998 14.7493 9.14702C14.6108 9.28405 14.423 9.36104 14.2272 9.36104C14.0314 9.36104 13.8435 9.28405 13.7051 9.14702C13.5666 9.00998 13.4888 8.82412 13.4888 8.63033V8.62954C13.4888 8.35483 13.6424 8.11575 13.8688 7.99225L13.8728 7.99066H13.8744ZM4.58 15.5614H4.5848C4.84347 15.5614 5.09573 15.5838 5.3416 15.6287L5.316 15.6247C6.14362 15.773 6.89492 16.1974 7.4448 16.8272L7.4488 16.832C7.57307 16.9835 7.71973 17.1062 7.8888 17.2001L7.8968 17.2041V17.1898L8.6192 17.2532H8.6496L9.3752 17.1811V17.2065C9.5512 17.1083 9.69973 16.9856 9.8208 16.8383L9.8232 16.836C10.3679 16.2093 11.1119 15.7846 11.9328 15.6318L11.9552 15.6287C12.176 15.5875 12.4304 15.563 12.6904 15.5622H12.6952C12.9661 15.5622 13.2288 15.5901 13.4832 15.6461L13.4592 15.6413L16.7736 6.82691L14.312 6.42633V3.75841L11.636 2.82899L10.868 0.00195312H6.4056L5.6376 2.82899L2.9616 3.75841V6.42633L0.5 6.82691L3.8144 15.6413C4.044 15.5907 4.308 15.5622 4.5784 15.5622H4.5832L4.58 15.5614Z" fill="#0386AF"/>
</g>
<defs>
<clipPath id="clip0_1404_8355">
<rect width="16" height="19" fill="white" transform="translate(0.5)"/>
</clipPath>
</defs>
</svg>
