<svg width="50" height="51" viewBox="0 0 50 51" fill="none" xmlns="http://www.w3.org/2000/svg">
<g clip-path="url(#clip0_1686_9582)">
<rect y="0.5" width="50" height="50" rx="25" fill="#DFE4E7"/>
<path d="M3.62964 52.0098C3.63125 52.125 3.65555 52.2388 3.70115 52.3446C3.74674 52.4505 3.81274 52.5463 3.89538 52.6266C3.97801 52.707 4.07567 52.7702 4.18276 52.8128C4.28985 52.8554 4.40428 52.8765 4.51952 52.8749H45.4774C45.5927 52.8767 45.7073 52.8557 45.8145 52.8132C45.9217 52.7706 46.0195 52.7074 46.1023 52.627C46.185 52.5467 46.2511 52.4508 46.2968 52.3449C46.3424 52.239 46.3668 52.1251 46.3684 52.0098V50.977C46.3886 50.6654 46.4303 49.1129 45.4065 47.395C44.7608 46.3116 43.8236 45.3768 42.621 44.614C41.1664 43.6915 39.3158 43.0244 37.077 42.6228C35.9405 42.4633 34.8132 42.244 33.6998 41.9658C30.7388 41.2098 30.48 40.5404 30.4778 40.5336C30.4603 40.4676 30.4354 40.4039 30.4035 40.3435C30.3788 40.2198 30.3191 39.7495 30.4339 38.4906C30.7241 35.2923 32.4398 33.4023 33.8179 31.8835C34.2521 31.4054 34.6628 30.952 34.9789 30.5088C36.3435 28.5963 36.4695 26.4194 36.4751 26.2844C36.4803 26.0452 36.4472 25.8067 36.3773 25.5779C36.2423 25.1616 35.9914 24.9029 35.8069 24.7116C35.7633 24.6678 35.7209 24.6228 35.6798 24.5766C35.6663 24.5609 35.6303 24.5181 35.6629 24.3033C35.7732 23.611 35.8494 22.9138 35.8913 22.2141C35.9543 21.0869 36.0026 19.4016 35.7113 17.7603C35.6686 17.4467 35.6039 17.1366 35.5178 16.8321C35.2118 15.7019 34.7168 14.7381 34.0328 13.9409C33.9146 13.8115 31.0481 10.7909 22.7265 10.1721C21.5756 10.0866 20.4383 10.1328 19.3178 10.1901C18.9864 10.1976 18.6566 10.2383 18.3334 10.3116C17.4739 10.5333 17.2444 11.0778 17.1848 11.3826C17.0846 11.8889 17.2601 12.2804 17.376 12.5414C17.3929 12.5785 17.4143 12.6246 17.3771 12.7461C17.1848 13.0454 16.8799 13.3154 16.5705 13.5708C16.4805 13.6461 14.3948 15.4461 14.28 17.7963C13.9706 19.5839 13.9931 22.3683 14.3588 24.2931C14.3813 24.4 14.4116 24.5575 14.361 24.6644C13.9673 25.0165 13.5218 25.4159 13.5229 26.3271C13.5274 26.4194 13.6545 28.5951 15.0191 30.5088C15.3341 30.952 15.7448 31.4043 16.1779 31.8824L16.1801 31.8835C17.5583 33.4023 19.2739 35.2923 19.5641 38.4895C19.6778 39.7495 19.6181 40.2186 19.5945 40.3435C19.5622 40.4038 19.537 40.4676 19.5191 40.5336C19.518 40.5404 19.2604 41.2075 16.3129 41.9624C14.6119 42.3978 12.9379 42.6205 12.8873 42.6261C10.7115 42.994 8.87214 43.6454 7.41977 44.5623C6.22164 45.3194 5.28227 46.2576 4.62977 47.3489C3.58577 49.0926 3.61389 50.6811 3.62852 50.9714L3.62964 52.0098Z" fill="#999999"/>
</g>
<defs>
<clipPath id="clip0_1686_9582">
<rect y="0.5" width="50" height="50" rx="25" fill="white"/>
</clipPath>
</defs>
</svg>
