<svg width="86" height="50" viewBox="0 0 86 50" fill="none" xmlns="http://www.w3.org/2000/svg">
<path d="M83.4805 39.1601L80.1612 21.3159C80.0413 20.7103 79.5214 20.2864 78.9215 20.2864H64.8648C64.2649 20.2864 63.7451 19.8625 63.6251 19.257L60.5058 3.18914C60.3858 2.58357 59.866 2.15967 59.2661 2.15967H25.274C24.6341 2.15967 24.0943 2.64412 24.0143 3.31025L22.4347 19.0753C22.3747 19.7212 21.8348 20.2259 21.175 20.2259H6.01848C5.37863 20.2259 4.83875 20.7103 4.75877 21.3361L2.57928 39.2408C2.4793 40.0079 3.07916 40.674 3.83898 40.674H16.3561C16.1761 41.8246 16.3161 43.1367 16.476 44.1459C17.0959 48.4051 20.5351 48.1629 24.2142 48.1629C25.414 48.1629 26.7337 48.1023 27.8534 47.739H27.9134C30.3728 46.9518 30.9127 43.2578 30.5528 40.674H54.4072C54.2273 41.8448 54.3672 43.1367 54.5272 44.1459C55.1471 48.4051 58.5863 48.1629 62.2654 48.1629C63.4651 48.1629 64.7848 48.1023 65.9046 47.739H65.9645C68.424 46.9518 68.9638 43.2578 68.6039 40.674H82.2607C83.0406 40.674 83.6404 39.9473 83.5005 39.1601H83.4805Z" fill="black"/>
<path d="M9.99739 38.9989C8.81767 39.1402 6.15828 39.3218 6.0983 38.9989C5.15852 32.7817 6.73815 21.3969 6.73815 21.3969C14.6763 21.4575 11.2571 20.0647 11.9969 28.5831C13.0367 24.7478 13.2766 21.1143 14.6363 21.1143C15.996 21.1143 17.0957 21.0538 17.0957 21.0538C17.2957 24.7881 16.7958 26.726 17.3957 28.3005C18.3355 24.8083 17.5356 21.0942 19.1553 21.1547C20.7749 21.2153 22.6345 22.0227 23.7942 20.6299C23.7942 20.6299 21.3348 34.8003 19.2752 39.0191C18.9353 39.7054 15.1962 39.0594 15.1962 39.0594C15.1962 39.0594 15.2562 38.4337 14.1364 33.3671C14.0365 32.8826 11.1171 38.8778 9.9774 39.0191L9.99739 38.9989Z" fill="white"/>
<path d="M22.4544 39.0997C20.2149 38.9382 26.1335 23.2539 25.8136 4.60228C25.7936 3.14891 27.4732 4.21875 41.7499 4.21875C43.6095 4.21875 40.9701 9.64871 40.9301 11.2636C40.9101 12.4747 37.9508 11.7076 33.5318 12.6564C32.932 12.9592 33.2319 14.2309 33.1319 14.9575C32.972 16.2091 37.011 15.6439 39.8504 16.3907L38.7906 23.9806C32.4721 24.6467 33.0319 21.1747 33.5518 28.9866C43.1096 29.0674 40.0903 29.3096 40.0103 38.9987C40.0103 38.9987 26.8134 39.3823 22.4344 39.0795L22.4544 39.0997Z" fill="white"/>
<path d="M43.6096 38.9583C39.5306 39.8263 41.1102 3.97643 45.1293 4.07736C56.4266 4.40033 59.226 2.22028 61.0656 16.1282L51.7677 16.3906C52.6875 12.8581 49.4683 8.27599 48.6485 13.9482C49.5482 15.6236 46.229 34.6587 51.3478 30.884C51.9877 30.0967 51.6877 27.0487 51.7477 25.9385H49.6282C49.1483 14.9575 49.8282 19.5598 59.4059 18.6514V38.9583C54.1272 38.3325 52.7075 41.4209 53.2274 34.2146C53.0274 40.2502 47.7087 38.9179 43.5696 38.9583H43.6096Z" fill="white"/>
<path d="M63.0451 38.7766C59.7459 37.2424 60.6857 25.676 60.6857 23.173C60.6857 20.67 60.3258 19.9635 60.6457 20.1653C64.4648 22.6078 76.8419 20.7103 77.5418 22.305C79.0014 23.2336 80.781 35.2037 81.0809 36.6772C81.7608 40.0482 64.4448 39.4023 63.0451 38.7564V38.7766ZM69.6836 35.0826C72.5829 35.668 70.7234 27.8359 71.2232 26.6046C71.2232 25.6155 70.5634 25.3127 69.6436 25.3127C66.7443 24.7273 68.6038 32.5594 68.104 33.7907C68.104 34.7596 68.7838 35.0826 69.6836 35.0826Z" fill="white"/>
</svg>
