<svg width="17" height="16" viewBox="0 0 17 16" fill="none" xmlns="http://www.w3.org/2000/svg">
<g clip-path="url(#clip0_1461_8296)">
<mask id="path-1-inside-1_1461_8296" fill="white">
<path d="M5.5 2C5.5 1.46957 5.71071 0.960859 6.08579 0.585786C6.46086 0.210714 6.96957 0 7.5 0L9.5 0C10.0304 0 10.5391 0.210714 10.9142 0.585786C11.2893 0.960859 11.5 1.46957 11.5 2H15C15.3978 2 15.7794 2.15804 16.0607 2.43934C16.342 2.72064 16.5 3.10218 16.5 3.5V12.5C16.5 12.8978 16.342 13.2794 16.0607 13.5607C15.7794 13.842 15.3978 14 15 14H14.5C14.5 14.1326 14.4473 14.2598 14.3536 14.3536C14.2598 14.4473 14.1326 14.5 14 14.5C13.8674 14.5 13.7402 14.4473 13.6464 14.3536C13.5527 14.2598 13.5 14.1326 13.5 14H3.5C3.5 14.1326 3.44732 14.2598 3.35355 14.3536C3.25979 14.4473 3.13261 14.5 3 14.5C2.86739 14.5 2.74021 14.4473 2.64645 14.3536C2.55268 14.2598 2.5 14.1326 2.5 14H2C1.60218 14 1.22064 13.842 0.93934 13.5607C0.658035 13.2794 0.5 12.8978 0.5 12.5L0.5 3.5C0.5 3.10218 0.658035 2.72064 0.93934 2.43934C1.22064 2.15804 1.60218 2 2 2H5.5ZM6.5 2H10.5C10.5 1.73478 10.3946 1.48043 10.2071 1.29289C10.0196 1.10536 9.76522 1 9.5 1H7.5C7.23478 1 6.98043 1.10536 6.79289 1.29289C6.60536 1.48043 6.5 1.73478 6.5 2ZM2 3C1.86739 3 1.74021 3.05268 1.64645 3.14645C1.55268 3.24021 1.5 3.36739 1.5 3.5V12.5C1.5 12.6326 1.55268 12.7598 1.64645 12.8536C1.74021 12.9473 1.86739 13 2 13H3.5V3H2ZM15.5 12.5V3.5C15.5 3.36739 15.4473 3.24021 15.3536 3.14645C15.2598 3.05268 15.1326 3 15 3H13.5V13H15C15.1326 13 15.2598 12.9473 15.3536 12.8536C15.4473 12.7598 15.5 12.6326 15.5 12.5ZM12.5 13V3H4.5V13H12.5Z"/>
</mask>
<path d="M5.5 2C5.5 1.46957 5.71071 0.960859 6.08579 0.585786C6.46086 0.210714 6.96957 0 7.5 0L9.5 0C10.0304 0 10.5391 0.210714 10.9142 0.585786C11.2893 0.960859 11.5 1.46957 11.5 2H15C15.3978 2 15.7794 2.15804 16.0607 2.43934C16.342 2.72064 16.5 3.10218 16.5 3.5V12.5C16.5 12.8978 16.342 13.2794 16.0607 13.5607C15.7794 13.842 15.3978 14 15 14H14.5C14.5 14.1326 14.4473 14.2598 14.3536 14.3536C14.2598 14.4473 14.1326 14.5 14 14.5C13.8674 14.5 13.7402 14.4473 13.6464 14.3536C13.5527 14.2598 13.5 14.1326 13.5 14H3.5C3.5 14.1326 3.44732 14.2598 3.35355 14.3536C3.25979 14.4473 3.13261 14.5 3 14.5C2.86739 14.5 2.74021 14.4473 2.64645 14.3536C2.55268 14.2598 2.5 14.1326 2.5 14H2C1.60218 14 1.22064 13.842 0.93934 13.5607C0.658035 13.2794 0.5 12.8978 0.5 12.5L0.5 3.5C0.5 3.10218 0.658035 2.72064 0.93934 2.43934C1.22064 2.15804 1.60218 2 2 2H5.5ZM6.5 2H10.5C10.5 1.73478 10.3946 1.48043 10.2071 1.29289C10.0196 1.10536 9.76522 1 9.5 1H7.5C7.23478 1 6.98043 1.10536 6.79289 1.29289C6.60536 1.48043 6.5 1.73478 6.5 2ZM2 3C1.86739 3 1.74021 3.05268 1.64645 3.14645C1.55268 3.24021 1.5 3.36739 1.5 3.5V12.5C1.5 12.6326 1.55268 12.7598 1.64645 12.8536C1.74021 12.9473 1.86739 13 2 13H3.5V3H2ZM15.5 12.5V3.5C15.5 3.36739 15.4473 3.24021 15.3536 3.14645C15.2598 3.05268 15.1326 3 15 3H13.5V13H15C15.1326 13 15.2598 12.9473 15.3536 12.8536C15.4473 12.7598 15.5 12.6326 15.5 12.5ZM12.5 13V3H4.5V13H12.5Z" fill="#999999"/>H11.5V2ZM16.5 3.5H17.5H16.5ZM16.5 12.5H17.5H16.5ZM14.5 14V13H13.5V14H14.5ZM13.5 14H14.5V13H13.5V14ZM3.5 14V13H2.5V14H3.5ZM2.5 14H3.5V13H2.5V14ZM2 14V15V14ZM0.5 12.5H-0.5H0.5ZM0.5 3.5H-0.5H0.5ZM6.5 2H5.5V3H6.5V2ZM10.5 2V3H11.5V2H10.5ZM9.5 1V0V1ZM7.5 1V0V1ZM1.5 3.5H0.5H1.5ZM1.5 12.5H0.5H1.5ZM3.5 13V14H4.5V13H3.5ZM3.5 3H4.5V2H3.5V3ZM13.5 3V2H12.5V3H13.5ZM13.5 13H12.5V14H13.5V13ZM12.5 13V14H13.5V13H12.5ZM12.5 3H13.5V2H12.5V3ZM4.5 3V2H3.5V3H4.5ZM4.5 13H3.5V14H4.5V13ZM5.5 2H6.5C6.5 1.73478 6.60536 1.48043 6.79289 1.29289L6.08579 0.585786L5.37868 -0.12132C4.81607 0.441289 4.5 1.20435 4.5 2H5.5ZM6.08579 0.585786L6.79289 1.29289C6.98043 1.10536 7.23478 1 7.5 1V0V-1C6.70435 -1 5.94129 -0.683929 5.37868 -0.12132L6.08579 0.585786ZM7.5 0V1H9.5V0V-1H7.5V0ZM9.5 0V1C9.76522 1 10.0196 1.10536 10.2071 1.29289L10.9142 0.585786L11.6213 -0.12132C11.0587 -0.683929 10.2956 -1 9.5 -1V0ZM10.9142 0.585786L10.2071 1.29289C10.3946 1.48043 10.5 1.73478 10.5 2H11.5H12.5C12.5 1.20435 12.1839 0.441288 11.6213 -0.12132L10.9142 0.585786ZM11.5 2V3H15V2V1H11.5V2ZM15 2V3C15.1326 3 15.2598 3.05268 15.3536 3.14645L16.0607 2.43934L16.7678 1.73223C16.2989 1.26339 15.663 1 15 1V2ZM16.0607 2.43934L15.3536 3.14645C15.4473 3.24021 15.5 3.36739 15.5 3.5H16.5H17.5C17.5 2.83696 17.2366 2.20107 16.7678 1.73223L16.0607 2.43934ZM16.5 3.5H15.5V12.5H16.5H17.5V3.5H16.5ZM16.5 12.5H15.5C15.5 12.6326 15.4473 12.7598 15.3536 12.8536L16.0607 13.5607L16.7678 14.2678C
<path d="M5.5 2V3H6.5V2H5.5ZM7.5 0V-1V0ZM11.5 2H10.5V317.2366 13.7989 17.5 13.163 17.5 12.5H16.5ZM16.0607 13.5607L15.3536 12.8536C15.2598 12.9473 15.1326 13 15 13V14V15C15.663 15 16.2989 14.7366 16.7678 14.2678L16.0607 13.5607ZM15 14V13H14.5V14V15H15V14ZM14.5 14H13.5C13.5 13.8674 13.5527 13.7402 13.6464 13.6464L14.3536 14.3536L15.0607 15.0607C15.342 14.7794 15.5 14.3978 15.5 14H14.5ZM14.3536 14.3536L13.6464 13.6464C13.7402 13.5527 13.8674 13.5 14 13.5V14.5V15.5C14.3978 15.5 14.7794 15.342 15.0607 15.0607L14.3536 14.3536ZM14 14.5V13.5C14.1326 13.5 14.2598 13.5527 14.3536 13.6464L13.6464 14.3536L12.9393 15.0607C13.2206 15.342 13.6022 15.5 14 15.5V14.5ZM13.6464 14.3536L14.3536 13.6464C14.4473 13.7402 14.5 13.8674 14.5 14H13.5H12.5C12.5 14.3978 12.658 14.7794 12.9393 15.0607L13.6464 14.3536ZM13.5 14V13H3.5V14V15H13.5V14ZM3.5 14H2.5C2.5 13.8674 2.55268 13.7402 2.64645 13.6464L3.35355 14.3536L4.06066 15.0607C4.34196 14.7794 4.5 14.3978 4.5 14H3.5ZM3.35355 14.3536L2.64645 13.6464C2.74022 13.5527 2.86739 13.5 3 13.5V14.5V15.5C3.39782 15.5 3.77935 15.342 4.06066 15.0607L3.35355 14.3536ZM3 14.5V13.5C3.13261 13.5 3.25978 13.5527 3.35355 13.6464L2.64645 14.3536L1.93934 15.0607C2.22065 15.342 2.60218 15.5 3 15.5V14.5ZM2.64645 14.3536L3.35355 13.6464C3.44732 13.7402 3.5 13.8674 3.5 14H2.5H1.5C1.5 14.3978 1.65804 14.7794 1.93934 15.0607L2.64645 14.3536ZM2.5 14V13H2V14V15H2.5V14ZM2 14V13C1.86739 13 1.74021 12.9473 1.64645 12.8536L0.93934 13.5607L0.232233 14.2678C0.701074 14.7366 1.33696 15 2 15V14ZM0.93934 13.5607L1.64645 12.8536C1.55268 12.7598 1.5 12.6326 1.5 12.5H0.5H-0.5C-0.5 13.163 -0.236608 13.7989 0.232233 14.2678L0.93934 13.5607ZM0.5 12.5H1.5V3.5H0.5H-0.5V12.5H0.5ZM0.5 3.5H1.5C1.5 3.36739 1.55268 3.24021 1.64645 3.14645L0.93934 2.43934L0.232233 1.73223C-0.236608 2.20107 -0.5 2.83696 -0.5 3.5H0.5ZM0.93934 2.43934L1.64645 3.14645C1.74021 3.05268 1.86739 3 2 3V2V1C1.33696 1 0.701074 1.26339 0.232233 1.73223L0.93934 2.43934ZM2 2V3H5.5V2V1H2V2ZM6.5 2V3H10.5V2V1H6.5V2ZM10.5 2H11.5C11.5 1.46957 11.2893 0.960859 10.9142 0.585786L10.2071 1.29289L9.5 2H10.5ZM10.2071 1.29289L10.9142 0.585786C10.5391 0.210714 10.0304 0 9.5 0V1V2L10.2071 1.29289ZM9.5 1V0H7.5V1V2H9.5V1ZM7.5 1V0C6.96957 0 6.46086 0.210714 6.08579 0.585786L6.79289 1.29289L7.5 2V1ZM6.79289 1.29289L6.08579 0.585786C5.71071 0.960859 5.5 1.46957 5.5 2H6.5H7.5L6.79289 1.29289ZM2 3V2C1.60217 2 1.22064 2.15804 0.93934 2.43934L1.64645 3.14645L2.35355 3.85355C2.25979 3.94732 2.13261 4 2 4V3ZM1.64645 3.14645L0.93934 2.43934C0.658035 2.72064 0.5 3.10218 0.5 3.5H1.5H2.5C2.5 3.63261 2.44732 3.75979 2.35355 3.85355L1.64645 3.14645ZM1.5 3.5H0.5V12.5H1.5H2.5V3.5H1.5ZM1.5 12.5H0.5C0.5 12.8978 0.658035 13.2794 0.93934 13.5607L1.64645 12.8536L2.35355 12.1464C2.44732 12.2402 2.5 12.3674 2.5 12.5H1.5ZM1.64645 12.8536L0.93934 13.5607C1.22065 13.842 1.60218 14 2 14V13V12C2.13261 12 2.25978 12.0527 2.35355 12.1464L1.64645 12.8536ZM2 13V14H3.5V13V12H2V13ZM3.5 13H4.5V3H3.5H2.5V13H3.5ZM3.5 3V2H2V3V4H3.5V3ZM15.5 12.5H16.5V3.5H15.5H14.5V12.5H15.5ZM15.5 3.5H16.5C16.5 3.10218 16.342 2.72065 16.0607 2.43934L15.3536 3.14645L14.6464 3.85355C14.5527 3.75978 14.5 3.63261 14.5 3.5H15.5ZM15.3536 3.14645L16.0607 2.43934C15.7794 2.15804 15.3978 2 15 2V3V4C14.8674 4 14.7402 3.94732 14.6464 3.85355L15.3536 3.14645ZM15 3V2H13.5V3V4H15V3ZM13.5 3H12.5V13H13.5H14.5V3H13.5ZM13.5 13V14H15V13V12H13.5V13ZM15 13V14C15.3978 14 15.7794 13.842 16.0607 13.5607L15.3536 12.8536L14.6464 12.1464C14.7402 12.0527 14.8674 12 15 12V13ZM15.3536 12.8536L16.0607 13.5607C16.342 13.2794 16.5 12.8978 16.5 12.5H15.5H14.5C14.5 12.3674 14.5527 12.2402 14.6464 12.1464L15.3536 12.8536ZM12.5 13H13.5V3H12.5H11.5V13H12.5ZM12.5 3V2H4.5V3V4H12.5V3ZM4.5 3H3.5V13H4.5H5.5V3H4.5ZM4.5 13V14H12.5V13V12H4.5V13Z" fill="#00a6db" mask="url(#path-1-inside-1_1461_8296)"/>
</g>
<defs>
<clipPath id="clip0_1461_8296">
<rect width="16" height="16" fill="white" transform="translate(0.5)"/>
</clipPath>
</defs>
</svg>
