<svg width="24" height="24" viewBox="0 0 24 24" fill="none" xmlns="http://www.w3.org/2000/svg">
<path d="M8.5 19.5V20.5C8.5 20.7652 8.60536 21.0196 8.79289 21.2071C8.98043 21.3946 9.23478 21.5 9.5 21.5C9.76522 21.5 10.0196 21.3946 10.2071 21.2071C10.3946 21.0196 10.5 20.7652 10.5 20.5V19.5M13.5 19.5V20.5C13.5 20.7652 13.6054 21.0196 13.7929 21.2071C13.9804 21.3946 14.2348 21.5 14.5 21.5C14.7652 21.5 15.0196 21.3946 15.2071 21.2071C15.3946 21.0196 15.5 20.7652 15.5 20.5V19.5M9.5 7.5V4.5C9.5 4.23478 9.60536 3.98043 9.79289 3.79289C9.98043 3.60536 10.2348 3.5 10.5 3.5H13.5C13.7652 3.5 14.0196 3.60536 14.2071 3.79289C14.3946 3.98043 14.5 4.23478 14.5 4.5V7.5M6.5 8.5C6.5 8.23478 6.60536 7.98043 6.79289 7.79289C6.98043 7.60536 7.23478 7.5 7.5 7.5H16.5C16.7652 7.5 17.0196 7.60536 17.2071 7.79289C17.3946 7.98043 17.5 8.23478 17.5 8.5V18.5C17.5 18.7652 17.3946 19.0196 17.2071 19.2071C17.0196 19.3946 16.7652 19.5 16.5 19.5H7.5C7.23478 19.5 6.98043 19.3946 6.79289 19.2071C6.60536 19.0196 6.5 18.7652 6.5 18.5V8.5Z" stroke="#999999" stroke-linecap="round" stroke-linejoin="round"/>
</svg>
